<?xml version="1.0" encoding="UTF-8"?>
<svg width="16px" height="16px" viewBox="0 0 16 16" xmlns="http://www.w3.org/2000/svg">
 <path d="m7.25 0.38281c-0.84766 0-1.5273 0.68359-1.5273 1.5312v1.5312h-3.0547c-0.5625 0-1.0156 0.45313-1.0156 1.0195v3.0625h1.5273c0.84766 0 1.5273 0.67969 1.5273 1.5312 0 0.84766-0.67969 1.5273-1.5273 1.5273h-1.5273v3.0625c0 0.56641 0.45312 1.0195 1.0156 1.0195h3.0547v-1.5312c0-0.84766 0.67969-1.5273 1.5273-1.5273s1.5273 0.67969 1.5273 1.5273v1.5312h3.0547c0.56641 0 1.0195-0.45312 1.0195-1.0195v-3.0625h1.5273c0.84375 0 1.5234-0.67969 1.5234-1.5273 0-0.85156-0.67969-1.5312-1.5234-1.5312h-1.5273v-3.0625c0-0.56641-0.45312-1.0195-1.0195-1.0195h-3.0547v-1.5312c0-0.84766-0.67969-1.5312-1.5273-1.5312z"/>
</svg>
