<?xml version="1.0" encoding="UTF-8"?>
<svg width="128px" height="128px" viewBox="0 0 128 128" xmlns="http://www.w3.org/2000/svg">
 <linearGradient id="a" x1="8.9664" x2="18.966" y1="25.252" y2="25.252" gradientTransform="matrix(10.895 0 0 10.92 -82.061 -213.02)" gradientUnits="userSpaceOnUse">
  <stop stop-color="#003380" offset="0"/>
  <stop stop-color="#0055d4" offset=".39284"/>
  <stop stop-color="#003380" offset="1"/>
 </linearGradient>
 <radialGradient id="b" cx="12.895" cy="25.795" r="5" gradientTransform="matrix(10.895 0 0 10.92 -82.061 -213.02)" gradientUnits="userSpaceOnUse">
  <stop stop-color="#5df" offset="0"/>
  <stop stop-color="#80b3ff" stop-opacity=".89804" offset="1"/>
 </radialGradient>
 <path d="m58.43 8.1367c-6.4766 0-11.676 5.2109-11.676 11.699v11.699h-23.344c-4.3164 0-7.7852 3.4727-7.7852 7.8008v23.402h11.676c6.4727 0 11.672 5.207 11.672 11.699 0 6.4883-5.1992 11.699-11.672 11.699h-11.676v23.402c0 4.3242 3.4688 7.7969 7.7852 7.7969h23.344v-11.699c0-6.4883 5.1992-11.699 11.676-11.699 6.4727 0 11.672 5.2109 11.672 11.699v11.699h23.348c4.3164 0 7.7812-3.4727 7.7812-7.7969v-23.402h11.672c6.4766 0 11.672-5.2109 11.672-11.699 0-6.4922-5.1953-11.699-11.672-11.699h-11.672v-23.402c0-4.3281-3.4648-7.8008-7.7812-7.8008h-23.348v-11.699c0-6.4883-5.1992-11.699-11.672-11.699z" fill="url(#a)"/>
 <path d="m58.43 2.3594c-6.4766 0-11.676 5.207-11.676 11.699v11.699h-23.344c-4.3164 0-7.7852 3.4727-7.7852 7.8008v23.398h11.676c6.4727 0 11.672 5.2109 11.672 11.703 0 6.4883-5.1992 11.699-11.672 11.699h-11.676v23.398c0 4.3281 3.4688 7.8008 7.7852 7.8008h23.344v-11.699c0-6.4922 5.1992-11.699 11.676-11.699 6.4727 0 11.672 5.207 11.672 11.699v11.699h23.348c4.3164 0 7.7812-3.4727 7.7812-7.8008v-23.398h11.672c6.4766 0 11.672-5.2109 11.672-11.699 0-6.4922-5.1953-11.703-11.672-11.703h-11.672v-23.398c0-4.3281-3.4648-7.8008-7.7812-7.8008h-23.348v-11.699c0-6.4922-5.1992-11.699-11.672-11.699z" fill="url(#b)"/>
 <g fill="#06f" fill-opacity=".30196">
  <path d="m58.426 2.3555c-6.4766 0-11.672 5.2148-11.672 11.703v11.699h-23.348c-4.3164 0-7.7812 3.4727-7.7812 7.8008v23.398h11.672c6.4766 0 11.676 5.2109 11.676 11.699h19.453z"/>
  <path d="m58.426 68.656v19.504c6.4766 0 11.676 5.207 11.676 11.699v11.695h23.344c4.3164 0 7.7852-3.4727 7.7852-7.7969v-23.398h11.672c6.4766 0 11.672-5.2109 11.672-11.703z"/>
 </g>
</svg>
