<?xml version="1.0" encoding="UTF-8"?>
<svg width="16px" height="16px" viewBox="0 0 16 16" xmlns="http://www.w3.org/2000/svg">
 <g fill="#2e3436">
  <path d="m2 3v11h11v-4h-2v2h-7v-7h2v-2z"/>
  <path d="m9 2c-0.55078 0-1 0.44922-1 1s0.44922 1 1 1h3v3c0 0.55078 0.44922 1 1 1s1-0.44922 1-1v-4c0-0.55078-0.44922-1-1-1z"/>
  <path d="m13 2h1v1h-1z"/>
  <path d="m12.293 2.2891-4.5 4.4688c-0.39062 0.39063-0.39062 1.0273 0 1.4141 0.39062 0.39453 1.0234 0.39453 1.4141 0.007813l4.5-4.4688c0.39062-0.39063 0.39062-1.0273 0-1.4141-0.38672-0.39453-1.0195-0.39453-1.4141-0.007813z"/>
  <path d="m13 7h1v1h-1z"/>
  <path d="m8 2h1v1h-1z"/>
 </g>
</svg>
