<?xml version="1.0" encoding="UTF-8"?>
<svg width="16px" height="16px" viewBox="0 0 16 16" xmlns="http://www.w3.org/2000/svg">
 <filter id="a" x="0%" y="0%" width="100%" height="100%">
  <feColorMatrix in="SourceGraphic" values="0 0 0 0 1 0 0 0 0 1 0 0 0 0 1 0 0 0 1 0"/>
 </filter>
 <mask id="b">
  <g filter="url(#a)">
   <path d="m0 0h16v16h-16z" fill-opacity=".3"/>
  </g>
 </mask>
 <clipPath id="c">
  <path d="m0 0h1600v1200h-1600z"/>
 </clipPath>
 <mask id="d">
  <g filter="url(#a)">
   <path d="m0 0h16v16h-16z" fill-opacity=".05"/>
  </g>
 </mask>
 <clipPath id="e">
  <path d="m0 0h1600v1200h-1600z"/>
 </clipPath>
 <mask id="f">
  <g filter="url(#a)">
   <path d="m0 0h16v16h-16z" fill-opacity=".05"/>
  </g>
 </mask>
 <clipPath id="g">
  <path d="m0 0h1600v1200h-1600z"/>
 </clipPath>
 <mask id="h">
  <g filter="url(#a)">
   <path d="m0 0h16v16h-16z" fill-opacity=".05"/>
  </g>
 </mask>
 <clipPath id="i">
  <path d="m0 0h1600v1200h-1600z"/>
 </clipPath>
 <mask id="j">
  <g filter="url(#a)">
   <path d="m0 0h16v16h-16z" fill-opacity=".05"/>
  </g>
 </mask>
 <clipPath id="k">
  <path d="m0 0h1600v1200h-1600z"/>
 </clipPath>
 <mask id="l">
  <g filter="url(#a)">
   <path d="m0 0h16v16h-16z" fill-opacity=".05"/>
  </g>
 </mask>
 <clipPath id="m">
  <path d="m0 0h1600v1200h-1600z"/>
 </clipPath>
 <mask id="n">
  <g filter="url(#a)">
   <path d="m0 0h16v16h-16z" fill-opacity=".05"/>
  </g>
 </mask>
 <clipPath id="o">
  <path d="m0 0h1600v1200h-1600z"/>
 </clipPath>
 <mask id="p">
  <g filter="url(#a)">
   <path d="m0 0h16v16h-16z" fill-opacity=".3"/>
  </g>
 </mask>
 <clipPath id="q">
  <path d="m0 0h1600v1200h-1600z"/>
 </clipPath>
 <mask id="r">
  <g filter="url(#a)">
   <path d="m0 0h16v16h-16z" fill-opacity=".5"/>
  </g>
 </mask>
 <clipPath id="s">
  <path d="m0 0h1600v1200h-1600z"/>
 </clipPath>
 <g transform="translate(-680 -40)" clip-path="url(#c)" mask="url(#b)">
  <path d="m562.46 212.06h10.449c-1.1836 0.49219-1.2969 2.4609 0 3h-10.449z" fill="#2e3436"/>
 </g>
 <path d="m7.5 0c-4.1289 0-7.5 3.3711-7.5 7.5s3.3711 7.5 7.5 7.5 7.5-3.3711 7.5-7.5-3.3711-7.5-7.5-7.5zm0 2c0.25781 0 0.50391 0.023438 0.75 0.054688 0.19141 0.26172 0.38281 0.59375 0.55078 1.0273 0.10547 0.27734 0.20312 0.58594 0.28906 0.91797h-3.1797c0.085938-0.33203 0.18359-0.64062 0.28906-0.91797 0.16797-0.43359 0.35938-0.76562 0.55078-1.0273 0.24609-0.03125 0.49219-0.054688 0.75-0.054688zm-2.0859 0.40625c-0.050781 0.10938-0.10547 0.20312-0.14844 0.31641-0.14844 0.38672-0.26953 0.82031-0.37891 1.2773h-1.6172c0.57031-0.69141 1.2969-1.2461 2.1445-1.5938zm4.1719 0c0.84766 0.34766 1.5742 0.90234 2.1445 1.5938h-1.6172c-0.10938-0.45703-0.23047-0.89062-0.37891-1.2773-0.042969-0.11328-0.097656-0.20703-0.14844-0.31641zm-6.9805 2.5938h2.082c-0.097656 0.62891-0.14844 1.3008-0.16797 2h-2.4805c0.0625-0.71484 0.25391-1.3906 0.56641-2zm3.0938 0h3.6016c0.10156 0.61719 0.15625 1.293 0.17969 2h-3.9609c0.023438-0.70703 0.078125-1.3828 0.17969-2zm4.6133 0h2.082c0.3125 0.60938 0.50391 1.2852 0.56641 2h-2.4805c-0.019531-0.69922-0.070313-1.3711-0.16797-2zm-8.2734 3h2.4805c0.019531 0.69922 0.070313 1.375 0.16797 2h-2.082c-0.3125-0.60938-0.50391-1.2852-0.56641-2zm3.4805 0h3.9609c-0.023438 0.70703-0.078125 1.3828-0.17969 2h-3.6016c-0.10156-0.61719-0.15625-1.293-0.17969-2zm4.9609 0h2.4805c-0.0625 0.71484-0.25391 1.3906-0.56641 2h-2.082c0.097656-0.625 0.14844-1.3008 0.16797-2zm-7.2109 3h1.6172c0.10938 0.45703 0.23047 0.89062 0.37891 1.2773 0.042969 0.11328 0.097656 0.20703 0.14844 0.31641-0.84766-0.34766-1.5742-0.90234-2.1445-1.5938zm2.6406 0h3.1797c-0.085938 0.33203-0.18359 0.64062-0.28906 0.91797-0.16797 0.43359-0.35938 0.76562-0.55078 1.0234-0.24609 0.035156-0.49609 0.058594-0.75 0.058594s-0.50391-0.023438-0.75-0.054688c-0.19141-0.26172-0.38281-0.59375-0.55078-1.0273-0.10547-0.27734-0.20312-0.58594-0.28906-0.91797zm4.2031 0h1.6172c-0.57031 0.69141-1.2969 1.2461-2.1445 1.5938 0.050781-0.10938 0.10547-0.20312 0.14844-0.31641 0.14844-0.38672 0.26953-0.82031 0.37891-1.2773z" fill="#2e3436"/>
 <g transform="translate(-680 -40)" clip-path="url(#e)" mask="url(#d)">
  <path d="m16 748h1v1h-1z" fill="#2e3436" fill-rule="evenodd"/>
 </g>
 <g transform="translate(-680 -40)" clip-path="url(#g)" mask="url(#f)">
  <path d="m17 747h1v1h-1z" fill="#2e3436" fill-rule="evenodd"/>
 </g>
 <g transform="translate(-680 -40)" clip-path="url(#i)" mask="url(#h)">
  <path d="m18 750h1v1h-1z" fill="#2e3436" fill-rule="evenodd"/>
 </g>
 <g transform="translate(-680 -40)" clip-path="url(#k)" mask="url(#j)">
  <path d="m16 750h1v1h-1z" fill="#2e3436" fill-rule="evenodd"/>
 </g>
 <g transform="translate(-680 -40)" clip-path="url(#m)" mask="url(#l)">
  <path d="m17 751h1v1h-1z" fill="#2e3436" fill-rule="evenodd"/>
 </g>
 <g transform="translate(-680 -40)" clip-path="url(#o)" mask="url(#n)">
  <path d="m19 751h1v1h-1z" fill="#2e3436" fill-rule="evenodd"/>
 </g>
 <g transform="translate(-680 -40)" clip-path="url(#q)" mask="url(#p)">
  <path d="m136 776v7h7v-7z" fill="#2e3436"/>
 </g>
 <g transform="translate(-680 -40)" clip-path="url(#s)" mask="url(#r)">
  <path d="m219 758h3v12h-3z" fill="#2e3436"/>
 </g>
</svg>
