<?xml version="1.0" encoding="UTF-8"?>
<svg width="16px" height="16px" viewBox="0 0 16 16" xmlns="http://www.w3.org/2000/svg">
 <path d="m7.9727 0.125c-0.42969 0.011719-0.77734 0.21484-1.0039 0.41406-0.22266 0.19922-0.36719 0.40625-0.49609 0.62109-0.25781 0.42969-0.44141 0.90234-0.62109 1.3711-0.17969 0.46484-0.34375 0.92969-0.49609 1.2695-0.082031 0.1875-0.0625 0.16016-0.11328 0.23438l-3.3945-0.007812c-0.45312-0.003906-0.84766 0.28125-0.98047 0.69531-0.23047 0.74609 0.10156 1.2266 0.37109 1.6484 0.26953 0.41797 0.60938 0.8125 0.95312 1.1992 0.34375 0.38281 0.6875 0.75 0.94922 1.0547 0.25781 0.30469 0.41797 0.60547 0.39062 0.51953-0.082031-0.24609-0.015625 0.042969-0.11719 0.39062-0.10156 0.34766-0.26953 0.80859-0.43359 1.2734-0.16016 0.46875-0.32031 0.94141-0.39844 1.4297-0.039062 0.24219-0.0625 0.49219-0.007812 0.78516 0.050781 0.29687 0.22656 0.69141 0.58984 0.9375 0.35938 0.24219 0.77344 0.26953 1.0742 0.23437 0.30469-0.035156 0.54688-0.125 0.78516-0.22656 0.48047-0.20312 0.92969-0.48438 1.375-0.76562 0.44141-0.28125 0.875-0.5625 1.2148-0.75781 0.34375-0.19531 0.66797-0.23437 0.44531-0.23437-0.25 0 0.070312 0.035156 0.40234 0.23047 0.33203 0.19531 0.75 0.48438 1.1836 0.76953 0.43359 0.28125 0.86719 0.56641 1.3359 0.77344 0.23047 0.10156 0.47266 0.19531 0.77734 0.23047 0.30469 0.035156 0.73438 0 1.0938-0.26172 0.039063-0.03125 0.078126-0.066406 0.11328-0.10156 0.51562-0.51172 0.55859-1.2148 0.47656-1.7305-0.082031-0.51172-0.26562-0.97266-0.44141-1.4141-0.17578-0.44141-0.35156-0.85938-0.44531-1.1836-0.09375-0.32422-0.070313-0.53125-0.074219-0.52344-0.054688 0.16016 0.085937-0.10938 0.35938-0.37109 0.27344-0.26562 0.64844-0.59375 1.0234-0.95312 0.375-0.35547 0.75-0.73438 1.0469-1.1914 0.29688-0.46094 0.5625-1.1016 0.3125-1.793-0.14453-0.39453-0.52734-0.65625-0.96094-0.66016h-3.5977c-0.019531-0.03125-0.019531-0.023438-0.039062-0.066406-0.14453-0.27734-0.32031-0.74609-0.5-1.2344-0.17578-0.49219-0.35938-1.0039-0.59766-1.4648-0.12109-0.23047-0.25-0.45312-0.46484-0.67188-0.21484-0.22266-0.59375-0.48047-1.0898-0.47266z" fill="#2e3436"/>
</svg>
