<?xml version="1.0" encoding="UTF-8"?>
<svg width="16px" height="16px" viewBox="0 0 16 16" xmlns="http://www.w3.org/2000/svg">
 <path d="m7.9727 0.125c-0.47656 0.011719-0.84766 0.26953-1.0586 0.49609-0.21094 0.22656-0.33594 0.45312-0.44531 0.68359-0.22656 0.46484-0.38672 0.96875-0.54297 1.4531-0.16016 0.48047-0.32031 0.9375-0.45312 1.1992-0.019531 0.039063-0.015625 0.03125-0.035156 0.058594h-3.5938c-0.44922 0-0.84766 0.28516-0.97656 0.69922-0.23438 0.74609 0.10156 1.2266 0.37109 1.6484s0.60938 0.81641 0.94922 1.2031c0.34375 0.38672 0.69141 0.75391 0.94922 1.0625 0.26172 0.30469 0.42188 0.60547 0.39453 0.51953-0.082031-0.24609-0.015625 0.042968-0.11719 0.39062-0.10156 0.34766-0.26953 0.80859-0.43359 1.2773-0.16016 0.46484-0.32031 0.94141-0.39844 1.4258-0.039062 0.24219-0.0625 0.49219-0.007812 0.78906 0.050781 0.29297 0.22656 0.6875 0.58984 0.93359 0.35938 0.24219 0.77344 0.26953 1.0742 0.23438 0.30469-0.035157 0.54688-0.125 0.78516-0.22656 0.48047-0.20312 0.92969-0.48438 1.375-0.76172 0.44141-0.28125 0.875-0.56641 1.2148-0.76172 0.34375-0.19531 0.66797-0.23438 0.44531-0.23438-0.25 0 0.070312 0.035156 0.40234 0.23047 0.33203 0.19922 0.75 0.48438 1.1836 0.76953 0.43359 0.28125 0.86719 0.56641 1.3359 0.77344 0.23047 0.10156 0.47266 0.19531 0.77734 0.23047 0.30469 0.035156 0.73438 0 1.0938-0.26172 0.039063-0.03125 0.078126-0.066406 0.11328-0.10156 0.51562-0.51172 0.55859-1.2148 0.47656-1.7305-0.082031-0.51172-0.26562-0.97266-0.44141-1.4141-0.17578-0.44141-0.35156-0.85938-0.44531-1.1836-0.09375-0.32422-0.070313-0.53125-0.074219-0.52344-0.054688 0.16016 0.085937-0.10938 0.35938-0.375 0.27344-0.26953 0.65234-0.59766 1.0273-0.95703s0.75-0.74219 1.043-1.2031c0.29688-0.45703 0.5625-1.0977 0.3125-1.7891-0.14453-0.39453-0.53125-0.66016-0.96484-0.66016h-3.5938c-0.019531-0.03125-0.019531-0.023437-0.042968-0.066406-0.14062-0.27734-0.31641-0.74219-0.49609-1.2305-0.17578-0.48828-0.35938-0.99609-0.59766-1.457-0.12109-0.23047-0.25391-0.44922-0.46875-0.67188-0.21484-0.21875-0.58984-0.47656-1.0859-0.46484zm0.050782 2.8008c0.0625 0.16406 0.11719 0.26953 0.17969 0.44922 0.17969 0.48438 0.35938 0.99219 0.59375 1.4531 0.12109 0.23047 0.25 0.44922 0.45703 0.66797 0.21094 0.21875 0.57812 0.48438 1.0703 0.48438h2.3672c-0.097656 0.10547-0.14844 0.18359-0.26172 0.29688-0.33203 0.31641-0.70313 0.64062-1.0352 0.96484-0.33203 0.32422-0.65625 0.57031-0.85156 1.1523-0.21094 0.61719-0.089844 1.1641 0.050781 1.6523 0.14062 0.49219 0.33984 0.95312 0.50391 1.3672 0.074219 0.17969 0.089844 0.28125 0.14453 0.4375-0.16016-0.09375-0.27344-0.14844-0.45313-0.26562-0.40625-0.26953-0.83984-0.56641-1.2617-0.81641-0.42578-0.25391-0.76172-0.52344-1.4648-0.52344-0.69531 0-1.0508 0.26172-1.4844 0.50781s-0.87891 0.54297-1.2969 0.80859c-0.1875 0.11719-0.31641 0.17578-0.48438 0.27344 0.046875-0.14844 0.058594-0.24219 0.11328-0.40234 0.15625-0.44141 0.33203-0.91406 0.46484-1.375 0.13281-0.45703 0.3125-0.85938 0.09375-1.5195-0.17578-0.51953-0.44922-0.80469-0.75781-1.1641-0.30859-0.35938-0.66016-0.73438-0.97656-1.0938-0.10156-0.11719-0.15234-0.19531-0.24609-0.30469h2.2812c0.46484-0.011718 0.83984-0.25 1.0625-0.47656 0.22266-0.22656 0.35547-0.45312 0.47266-0.6875 0.23828-0.46875 0.40234-0.98047 0.5625-1.4648 0.054687-0.17188 0.10156-0.26953 0.15625-0.42969z" fill="#2e3436"/>
</svg>
